<svg width="97" height="97" xmlns="http://www.w3.org/2000/svg"><g fill-rule="nonzero" fill="none"><path fill="#797987" d="M2.5 2.5h92v92h-92z"/><path d="M92 5v87H5V5h87m5-5H0v97h97V0z" fill="#000"/><path d="M5 5h21v21H5V5zm22 0h21v21H27V5zm22 0h21v21H49V5z" fill="#FFF"/><path fill="#000" d="M71 5h21v21H71z"/><path fill="#FFF" d="M5 27h21v21H5z"/><path fill="#000" d="M27 27h21v21H27z"/><path d="M49 27h21v21H49V27zm22 0h21v21H71V27zM5 49h21v21H5V49zm22 0h21v21H27V49z" fill="#FFF"/><path fill="#000" d="M49 49h21v21H49z"/><path fill="#FFF" d="M71 49h21v21H71z"/><path fill="#000" d="M5 71h21v21H5z"/><path d="M27 71h21v21H27V71zm22 0h21v21H49V71zm22 0h21v21H71V71z" fill="#FFF"/></g></svg>