<?xml version="1.0" standalone="no"?>
<!DOCTYPE svg PUBLIC "-//W3C//DTD SVG 20010904//EN"
 "http://www.w3.org/TR/2001/REC-SVG-20010904/DTD/svg10.dtd">
<svg version="1.0" xmlns="http://www.w3.org/2000/svg"
 width="700.000000pt" height="700.000000pt" viewBox="0 0 700.000000 700.000000"
 preserveAspectRatio="xMidYMid meet">
<metadata>
Created by potrace 1.14, written by Peter Selinger 2001-2017
</metadata>
<g transform="translate(0.000000,700.000000) scale(0.100000,-0.100000)"
fill="#000000" stroke="none">
<path d="M0 3500 l0 -3500 3500 0 3500 0 0 3500 0 3500 -3500 0 -3500 0 0
-3500z m6628 1588 l-3 -1543 -1542 -3 -1543 -2 0 1538 c0 846 3 1542 7 1545 3
4 699 7 1545 7 l1538 0 -2 -1542z m0 -3176 l2 -1542 -1542 2 -1543 3 -3 1543
-2 1542 1542 -2 1543 -3 3 -1543z m-3170 1 l-3 -1538 -1542 -3 -1543 -2 0
1540 0 1540 1545 0 1545 0 -2 -1537z"/>
</g>
</svg>
